<svg xmlns="http://www.w3.org/2000/svg" viewBox="0 0 320 240"><rect width="320" height="240" fill="#0f1419" rx="8"/>
<line x1="50" y1="28" x2="50" y2="107" stroke="#7a8fa3" stroke-width="2"/>
<line x1="37" y1="107" x2="63" y2="107" stroke="#3ecf8e" stroke-width="3.5"/>
<line x1="43" y1="115" x2="57" y2="115" stroke="#f07178" stroke-width="2"/>
<line x1="50" y1="115" x2="50" y2="212" stroke="#7a8fa3" stroke-width="2"/>
<text x="32" y="111" text-anchor="end" font-family="monospace" font-size="11" fill="#3ecf8e">+</text>
<text x="32" y="119" text-anchor="end" font-family="monospace" font-size="11" fill="#f07178">−</text>
<text x="50" y="228" text-anchor="middle" font-family="monospace" font-size="12" fill="#d8e8f2">E = 18 V</text>
<line x1="50" y1="28" x2="95" y2="28" stroke="#7a8fa3" stroke-width="2"/>
<line x1="95" y1="28" x2="95" y2="212" stroke="#7a8fa3" stroke-width="2"/>
<line x1="50" y1="212" x2="95" y2="212" stroke="#7a8fa3" stroke-width="2"/>
<line x1="250" y1="28" x2="272" y2="28" stroke="#7a8fa3" stroke-width="2"/>
<line x1="250" y1="28" x2="250" y2="212" stroke="#7a8fa3" stroke-width="2"/>
<line x1="250" y1="212" x2="272" y2="212" stroke="#7a8fa3" stroke-width="2"/>
<line x1="272" y1="28" x2="272" y2="212" stroke="#7a8fa3" stroke-width="2"/>
<line x1="95" y1="72" x2="115" y2="72" stroke="#7a8fa3" stroke-width="2"/>
<line x1="195" y1="72" x2="250" y2="72" stroke="#7a8fa3" stroke-width="2"/>
<rect x="115" y="59" width="80" height="26" fill="#1a2535" stroke="#3d9cf0" stroke-width="1.5" rx="3"/><text x="155" y="75.64" text-anchor="middle" font-family="'Courier New',monospace" font-size="12" fill="#d8e8f2">R₁=3Ω</text>
<line x1="95" y1="112" x2="115" y2="112" stroke="#7a8fa3" stroke-width="2"/>
<line x1="195" y1="112" x2="250" y2="112" stroke="#7a8fa3" stroke-width="2"/>
<rect x="115" y="99" width="80" height="26" fill="#1a2535" stroke="#3d9cf0" stroke-width="1.5" rx="3"/><text x="155" y="115.64" text-anchor="middle" font-family="'Courier New',monospace" font-size="12" fill="#d8e8f2">R₂=6Ω</text>
<line x1="95" y1="152" x2="115" y2="152" stroke="#7a8fa3" stroke-width="2"/>
<line x1="195" y1="152" x2="250" y2="152" stroke="#7a8fa3" stroke-width="2"/>
<rect x="115" y="139" width="80" height="26" fill="#1a2535" stroke="#3d9cf0" stroke-width="1.5" rx="3"/><text x="155" y="155.64" text-anchor="middle" font-family="'Courier New',monospace" font-size="12" fill="#d8e8f2">R₃=6Ω</text>
<text x="160" y="235" text-anchor="middle" font-family="monospace" font-size="10" fill="#5a7080">R₁=3Ω，R₂=6Ω，R₃=6Ω の並列回路</text>
</svg>