<svg xmlns="http://www.w3.org/2000/svg" viewBox="0 0 320 205"><rect width="320" height="205" fill="#0f1419" rx="8"/>
<line x1="50" y1="32" x2="50" y2="89.5" stroke="#7a8fa3" stroke-width="2"/>
<line x1="37" y1="89.5" x2="63" y2="89.5" stroke="#3ecf8e" stroke-width="3.5"/>
<line x1="43" y1="97.5" x2="57" y2="97.5" stroke="#f07178" stroke-width="2"/>
<line x1="50" y1="97.5" x2="50" y2="173" stroke="#7a8fa3" stroke-width="2"/>
<text x="32" y="93.5" text-anchor="end" font-family="monospace" font-size="11" fill="#3ecf8e">+</text>
<text x="32" y="101.5" text-anchor="end" font-family="monospace" font-size="11" fill="#f07178">−</text>
<text x="50" y="189" text-anchor="middle" font-family="monospace" font-size="12" fill="#d8e8f2">E = 20 V</text>
<line x1="50" y1="32" x2="95" y2="32" stroke="#7a8fa3" stroke-width="2"/>
<line x1="95" y1="32" x2="95" y2="173" stroke="#7a8fa3" stroke-width="2"/>
<line x1="50" y1="173" x2="95" y2="173" stroke="#7a8fa3" stroke-width="2"/>
<line x1="250" y1="32" x2="272" y2="32" stroke="#7a8fa3" stroke-width="2"/>
<line x1="250" y1="32" x2="250" y2="173" stroke="#7a8fa3" stroke-width="2"/>
<line x1="250" y1="173" x2="272" y2="173" stroke="#7a8fa3" stroke-width="2"/>
<line x1="272" y1="32" x2="272" y2="173" stroke="#7a8fa3" stroke-width="2"/>
<line x1="95" y1="80" x2="115" y2="80" stroke="#7a8fa3" stroke-width="2"/>
<line x1="195" y1="80" x2="250" y2="80" stroke="#7a8fa3" stroke-width="2"/>
<line x1="95" y1="130" x2="115" y2="130" stroke="#7a8fa3" stroke-width="2"/>
<line x1="195" y1="130" x2="250" y2="130" stroke="#7a8fa3" stroke-width="2"/>
<rect x="115" y="66.5" width="80" height="27" fill="#1a2535" stroke="#3d9cf0" stroke-width="1.5" rx="3"/><text x="155" y="83.78" text-anchor="middle" font-family="'Courier New',monospace" font-size="12" fill="#d8e8f2">R₁=4Ω</text>
<rect x="115" y="116.5" width="80" height="27" fill="#1a2535" stroke="#3d9cf0" stroke-width="1.5" rx="3"/><text x="155" y="133.78" text-anchor="middle" font-family="'Courier New',monospace" font-size="12" fill="#d8e8f2">R₂=4Ω</text>
<text x="160" y="200" text-anchor="middle" font-family="monospace" font-size="10" fill="#5a7080">R₁=4Ω と R₂=4Ω の並列回路</text>
</svg>