<svg xmlns="http://www.w3.org/2000/svg" viewBox="0 0 320 170"><rect width="320" height="170" fill="#0f1419" rx="8"/>
<line x1="50" y1="40" x2="50" y2="76" stroke="#7a8fa3" stroke-width="2"/>
<line x1="37" y1="76" x2="63" y2="76" stroke="#3ecf8e" stroke-width="3.5"/>
<line x1="43" y1="84" x2="57" y2="84" stroke="#f07178" stroke-width="2"/>
<line x1="50" y1="84" x2="50" y2="138" stroke="#7a8fa3" stroke-width="2"/>
<text x="32" y="80" text-anchor="end" font-family="monospace" font-size="11" fill="#3ecf8e">+</text>
<text x="32" y="88" text-anchor="end" font-family="monospace" font-size="11" fill="#f07178">−</text>
<text x="50" y="154" text-anchor="middle" font-family="monospace" font-size="12" fill="#d8e8f2">E = 40 V</text>
<line x1="50" y1="40" x2="88" y2="40" stroke="#7a8fa3" stroke-width="2"/>
<line x1="160" y1="40" x2="193" y2="40" stroke="#7a8fa3" stroke-width="2"/>
<line x1="265" y1="40" x2="272" y2="40" stroke="#7a8fa3" stroke-width="2"/>
<line x1="272" y1="40" x2="272" y2="138" stroke="#7a8fa3" stroke-width="2"/>
<line x1="50" y1="138" x2="272" y2="138" stroke="#7a8fa3" stroke-width="2"/>
<rect x="88" y="26" width="72" height="28" fill="#1a2535" stroke="#3d9cf0" stroke-width="1.5" rx="3"/><text x="124" y="43.92" text-anchor="middle" font-family="'Courier New',monospace" font-size="12" fill="#d8e8f2">R₁=3Ω</text>
<rect x="193" y="26" width="72" height="28" fill="#1a2535" stroke="#3d9cf0" stroke-width="1.5" rx="3"/><text x="229" y="43.92" text-anchor="middle" font-family="'Courier New',monospace" font-size="12" fill="#d8e8f2">R₂=7Ω</text>
<text x="160" y="165" text-anchor="middle" font-family="monospace" font-size="10" fill="#5a7080">R₁=3Ω と R₂=7Ω の直列回路</text>
</svg>