<svg xmlns="http://www.w3.org/2000/svg" viewBox="0 0 370 215"><rect width="370" height="215" fill="#0f1419" rx="8"/>
<line x1="50" y1="38" x2="50" y2="96" stroke="#7a8fa3" stroke-width="2"/>
<line x1="37" y1="96" x2="63" y2="96" stroke="#3ecf8e" stroke-width="3.5"/>
<line x1="43" y1="104" x2="57" y2="104" stroke="#f07178" stroke-width="2"/>
<line x1="50" y1="104" x2="50" y2="180" stroke="#7a8fa3" stroke-width="2"/>
<text x="32" y="100" text-anchor="end" font-family="monospace" font-size="11" fill="#3ecf8e">+</text>
<text x="32" y="108" text-anchor="end" font-family="monospace" font-size="11" fill="#f07178">−</text>
<text x="50" y="196" text-anchor="middle" font-family="monospace" font-size="12" fill="#d8e8f2">E = 20 V</text>
<line x1="50" y1="38" x2="88" y2="38" stroke="#7a8fa3" stroke-width="2"/>
<rect x="88" y="24" width="65" height="28" fill="#1a2535" stroke="#3d9cf0" stroke-width="1.5" rx="3"/><text x="120.5" y="41.92" text-anchor="middle" font-family="'Courier New',monospace" font-size="12" fill="#d8e8f2">R₁=2Ω</text>
<line x1="153" y1="38" x2="175" y2="38" stroke="#7a8fa3" stroke-width="2"/>
<line x1="175" y1="38" x2="175" y2="142" stroke="#7a8fa3" stroke-width="2"/>
<line x1="175" y1="88" x2="193" y2="88" stroke="#7a8fa3" stroke-width="2"/>
<rect x="193" y="75" width="72" height="26" fill="#1a2535" stroke="#3d9cf0" stroke-width="1.5" rx="3"/><text x="229" y="91.64" text-anchor="middle" font-family="'Courier New',monospace" font-size="12" fill="#d8e8f2">R₂=4Ω</text>
<line x1="265" y1="88" x2="266" y2="88" stroke="#7a8fa3" stroke-width="2"/>
<line x1="175" y1="142" x2="193" y2="142" stroke="#7a8fa3" stroke-width="2"/>
<rect x="193" y="129" width="72" height="26" fill="#1a2535" stroke="#3d9cf0" stroke-width="1.5" rx="3"/><text x="229" y="145.64" text-anchor="middle" font-family="'Courier New',monospace" font-size="12" fill="#d8e8f2">R₃=4Ω</text>
<line x1="265" y1="142" x2="266" y2="142" stroke="#7a8fa3" stroke-width="2"/>
<line x1="265" y1="88" x2="265" y2="180" stroke="#7a8fa3" stroke-width="2"/>
<line x1="50" y1="180" x2="265" y2="180" stroke="#7a8fa3" stroke-width="2"/>
<text x="185" y="210" text-anchor="middle" font-family="monospace" font-size="10" fill="#5a7080">R₁直列 → (R₂‖R₃)並列</text>
</svg>