<svg xmlns="http://www.w3.org/2000/svg" viewBox="0 0 900 560" width="100%" role="img" aria-labelledby="title desc" font-family="Arial,'Hiragino Sans','Yu Gothic',sans-serif">
<title id="title">断熱材施工対応ダウンライトの表示</title><desc id="desc">照明器具のSB・SGI・SG形適合品表示を示す自作イラスト。</desc><rect width="900" height="560" fill="#f8fafc"/><defs><marker id="arrow" markerWidth="8" markerHeight="8" refX="7" refY="4" orient="auto"><path d="M0,0 L8,4 L0,8 Z" fill="#111827"/></marker><marker id="arrowBlue" markerWidth="8" markerHeight="8" refX="7" refY="4" orient="auto"><path d="M0,0 L8,4 L0,8 Z" fill="#2563eb"/></marker></defs><text x="32" y="42" font-size="20" font-weight="700" fill="#111827">断熱材施工対応ダウンライトの表示</text>
<text x="32" y="70" font-size="13" fill="#475569">矢印で示された表示マークから用途を判別する。</text>
<ellipse cx="300" cy="368" rx="145" ry="48" fill="#d1d5db" stroke="#111827" stroke-width="3"/><ellipse cx="300" cy="350" rx="95" ry="32" fill="#f8fafc" stroke="#64748b" stroke-width="2"/>
<path d="M190 300 L410 300 L370 350 L230 350 Z" fill="#e5e7eb" stroke="#111827" stroke-width="3"/>
<rect x="220" y="238" width="160" height="62" rx="8" fill="#cbd5e1" stroke="#111827" stroke-width="3"/>
<circle cx="244" cy="268" r="7" fill="#fff"/><circle cx="356" cy="268" r="7" fill="#fff"/>
<rect x="490" y="170" width="250" height="104" rx="8" fill="#fff" stroke="#111827" stroke-width="3"/>
<text x="615" y="206" text-anchor="middle" font-size="18" font-weight="700">日本照明工業会</text>
<text x="615" y="238" text-anchor="middle" font-size="22" font-weight="700">SB・SGI・SG形適合品</text>
<path d="M490 248 q20 20 40 0 t40 0 t40 0 t40 0 t40 0" fill="none" stroke="#111827" stroke-width="3"/>
<path d="M430 285 L490 245" stroke="#2563eb" stroke-width="4" marker-end="url(#arrowBlue)"/>
<text x="504" y="340" font-size="16" fill="#334155">断熱材施工天井に埋込可能な器具の表示</text>
</svg>
