<svg xmlns="http://www.w3.org/2000/svg" viewBox="0 0 880 520" width="100%" role="img" aria-labelledby="title desc" font-family="Arial,'Hiragino Sans','Yu Gothic',sans-serif">
<title id="title">2026年 上期・出題例 問47 模式図</title>
<desc id="desc">出典：令和8年度第一種電気工事士上期学科試験（出題例） 問47の学習用自作模式図。公式図・写真の転載ではありません。</desc>
<rect width="880" height="520" fill="#f8fafc"/>
<defs><marker id="arrow" markerWidth="8" markerHeight="8" refX="7" refY="4" orient="auto"><path d="M0,0 L8,4 L0,8 Z" fill="#334155"/></marker><marker id="arrowBlue" markerWidth="8" markerHeight="8" refX="7" refY="4" orient="auto"><path d="M0,0 L8,4 L0,8 Z" fill="#2563eb"/></marker></defs>
<rect x="28" y="22" width="824" height="146" rx="12" fill="#ffffff" stroke="#cbd5e1"/>
<text x="42" y="52" font-size="20" font-weight="700" fill="#111827">2026年 上期・出題例 問47 模式図</text>
<text x="42" y="76" font-size="16" fill="#334155">⑦で示す回路の絶縁耐力試験の検査で</text>
<rect x="648" y="42" width="176" height="34" rx="17" fill="#eaf1ff"/><text x="736" y="64" text-anchor="middle" font-size="13" font-weight="700" fill="#2563eb">配線図・機器配置の模式図</text>
<rect x="120" y="216" width="640" height="220" rx="10" fill="#fff" stroke="#111827" stroke-width="3"/>
<line x1="174" y1="272" x2="704" y2="272" stroke="#111827" stroke-width="4"/><line x1="174" y1="336" x2="704" y2="336" stroke="#111827" stroke-width="4"/><line x1="174" y1="400" x2="704" y2="400" stroke="#111827" stroke-width="4"/>
<circle cx="240" cy="272" r="22" fill="#eaf1ff" stroke="#2563eb" stroke-width="3"/><text x="240" y="278" text-anchor="middle" font-size="18" font-weight="700" fill="#2563eb">1</text><circle cx="346" cy="336" r="22" fill="#eaf1ff" stroke="#2563eb" stroke-width="3"/><text x="346" y="342" text-anchor="middle" font-size="18" font-weight="700" fill="#2563eb">2</text><circle cx="452" cy="400" r="22" fill="#eaf1ff" stroke="#2563eb" stroke-width="3"/><text x="452" y="406" text-anchor="middle" font-size="18" font-weight="700" fill="#2563eb">3</text><circle cx="558" cy="272" r="22" fill="#eaf1ff" stroke="#2563eb" stroke-width="3"/><text x="558" y="278" text-anchor="middle" font-size="18" font-weight="700" fill="#2563eb">4</text><circle cx="664" cy="336" r="22" fill="#eaf1ff" stroke="#2563eb" stroke-width="3"/><text x="664" y="342" text-anchor="middle" font-size="18" font-weight="700" fill="#2563eb">5</text>
<text x="440" y="470" text-anchor="middle" font-size="16" fill="#334155">番号で示された機器・施工箇所を読む</text>
</svg>
